<mxfile host="app.diagrams.net" modified="2023-09-25T06:24:50.793Z" agent="Mozilla/5.0 (Windows NT 10.0; Win64; x64) AppleWebKit/537.36 (KHTML, like Gecko) Chrome/116.0.0.0 Safari/537.36" etag="Xiv4DlGG6991JmX0DH6O" version="21.8.0" type="github">
  <diagram name="第 1 页" id="kzH_K86H7EtC_nT1sYMt">
    <mxGraphModel dx="1434" dy="758" grid="1" gridSize="10" guides="1" tooltips="1" connect="1" arrows="1" fold="1" page="1" pageScale="1" pageWidth="4681" pageHeight="3300" math="0" shadow="0">
      <root>
        <mxCell id="0" />
        <mxCell id="1" parent="0" />
        <mxCell id="UrWgkj2aCOMLwKdR82E0-11" style="edgeStyle=orthogonalEdgeStyle;rounded=0;orthogonalLoop=1;jettySize=auto;html=1;exitX=0.5;exitY=1;exitDx=0;exitDy=0;" edge="1" parent="1" source="UrWgkj2aCOMLwKdR82E0-1" target="UrWgkj2aCOMLwKdR82E0-2">
          <mxGeometry relative="1" as="geometry" />
        </mxCell>
        <mxCell id="UrWgkj2aCOMLwKdR82E0-1" value="sendReward" style="rounded=0;whiteSpace=wrap;html=1;" vertex="1" parent="1">
          <mxGeometry x="370" y="100" width="140" height="30" as="geometry" />
        </mxCell>
        <mxCell id="UrWgkj2aCOMLwKdR82E0-12" style="edgeStyle=orthogonalEdgeStyle;rounded=0;orthogonalLoop=1;jettySize=auto;html=1;exitX=0.5;exitY=1;exitDx=0;exitDy=0;entryX=0.5;entryY=0;entryDx=0;entryDy=0;" edge="1" parent="1" source="UrWgkj2aCOMLwKdR82E0-2" target="UrWgkj2aCOMLwKdR82E0-9">
          <mxGeometry relative="1" as="geometry" />
        </mxCell>
        <mxCell id="UrWgkj2aCOMLwKdR82E0-2" value="groupAndSplitSendItemList&lt;br&gt;堆叠物品转换" style="rounded=0;whiteSpace=wrap;html=1;" vertex="1" parent="1">
          <mxGeometry x="355" y="160" width="170" height="40" as="geometry" />
        </mxCell>
        <mxCell id="UrWgkj2aCOMLwKdR82E0-14" style="edgeStyle=orthogonalEdgeStyle;rounded=0;orthogonalLoop=1;jettySize=auto;html=1;exitX=0.5;exitY=1;exitDx=0;exitDy=0;" edge="1" parent="1" source="UrWgkj2aCOMLwKdR82E0-3" target="UrWgkj2aCOMLwKdR82E0-6">
          <mxGeometry relative="1" as="geometry" />
        </mxCell>
        <mxCell id="UrWgkj2aCOMLwKdR82E0-3" value="循环发送物品" style="rounded=0;whiteSpace=wrap;html=1;" vertex="1" parent="1">
          <mxGeometry x="380" y="280" width="120" height="30" as="geometry" />
        </mxCell>
        <mxCell id="UrWgkj2aCOMLwKdR82E0-16" style="edgeStyle=orthogonalEdgeStyle;rounded=0;orthogonalLoop=1;jettySize=auto;html=1;exitX=0.5;exitY=1;exitDx=0;exitDy=0;fillColor=#f8cecc;strokeColor=#b85450;" edge="1" parent="1" source="UrWgkj2aCOMLwKdR82E0-4" target="UrWgkj2aCOMLwKdR82E0-8">
          <mxGeometry relative="1" as="geometry" />
        </mxCell>
        <mxCell id="UrWgkj2aCOMLwKdR82E0-4" value="发放资源" style="rounded=0;whiteSpace=wrap;html=1;fillColor=#f8cecc;strokeColor=#b85450;" vertex="1" parent="1">
          <mxGeometry x="540" y="355" width="120" height="30" as="geometry" />
        </mxCell>
        <mxCell id="UrWgkj2aCOMLwKdR82E0-18" style="edgeStyle=orthogonalEdgeStyle;rounded=0;orthogonalLoop=1;jettySize=auto;html=1;exitX=0.5;exitY=1;exitDx=0;exitDy=0;entryX=0.5;entryY=0;entryDx=0;entryDy=0;fillColor=#f8cecc;strokeColor=#b85450;" edge="1" parent="1" source="UrWgkj2aCOMLwKdR82E0-5" target="UrWgkj2aCOMLwKdR82E0-7">
          <mxGeometry relative="1" as="geometry" />
        </mxCell>
        <mxCell id="UrWgkj2aCOMLwKdR82E0-5" value="发放道具" style="rounded=0;whiteSpace=wrap;html=1;fillColor=#f8cecc;strokeColor=#b85450;" vertex="1" parent="1">
          <mxGeometry x="380" y="440" width="120" height="30" as="geometry" />
        </mxCell>
        <mxCell id="UrWgkj2aCOMLwKdR82E0-15" style="edgeStyle=orthogonalEdgeStyle;rounded=0;orthogonalLoop=1;jettySize=auto;html=1;exitX=1;exitY=0.5;exitDx=0;exitDy=0;entryX=0;entryY=0.5;entryDx=0;entryDy=0;fillColor=#f8cecc;strokeColor=#b85450;" edge="1" parent="1" source="UrWgkj2aCOMLwKdR82E0-6" target="UrWgkj2aCOMLwKdR82E0-4">
          <mxGeometry relative="1" as="geometry" />
        </mxCell>
        <mxCell id="UrWgkj2aCOMLwKdR82E0-17" style="edgeStyle=orthogonalEdgeStyle;rounded=0;orthogonalLoop=1;jettySize=auto;html=1;exitX=0.5;exitY=1;exitDx=0;exitDy=0;entryX=0.5;entryY=0;entryDx=0;entryDy=0;fillColor=#f8cecc;strokeColor=#b85450;" edge="1" parent="1" source="UrWgkj2aCOMLwKdR82E0-6" target="UrWgkj2aCOMLwKdR82E0-5">
          <mxGeometry relative="1" as="geometry" />
        </mxCell>
        <mxCell id="UrWgkj2aCOMLwKdR82E0-6" value="是否为&lt;br&gt;资源" style="rhombus;whiteSpace=wrap;html=1;fillColor=#f8cecc;strokeColor=#b85450;" vertex="1" parent="1">
          <mxGeometry x="380" y="345" width="120" height="50" as="geometry" />
        </mxCell>
        <mxCell id="UrWgkj2aCOMLwKdR82E0-7" value="更新DB" style="whiteSpace=wrap;html=1;fillColor=#f8cecc;strokeColor=#b85450;" vertex="1" parent="1">
          <mxGeometry x="380" y="500" width="110" height="30" as="geometry" />
        </mxCell>
        <mxCell id="UrWgkj2aCOMLwKdR82E0-8" value="更新DB" style="whiteSpace=wrap;html=1;fillColor=#f8cecc;strokeColor=#b85450;" vertex="1" parent="1">
          <mxGeometry x="545" y="420" width="110" height="30" as="geometry" />
        </mxCell>
        <mxCell id="UrWgkj2aCOMLwKdR82E0-13" style="edgeStyle=orthogonalEdgeStyle;rounded=0;orthogonalLoop=1;jettySize=auto;html=1;exitX=0.5;exitY=1;exitDx=0;exitDy=0;" edge="1" parent="1" source="UrWgkj2aCOMLwKdR82E0-9" target="UrWgkj2aCOMLwKdR82E0-3">
          <mxGeometry relative="1" as="geometry" />
        </mxCell>
        <mxCell id="UrWgkj2aCOMLwKdR82E0-9" value="specialItemChange&lt;br&gt;堆叠物品转换" style="rounded=0;whiteSpace=wrap;html=1;fillColor=#d5e8d4;strokeColor=#82b366;" vertex="1" parent="1">
          <mxGeometry x="355" y="220" width="170" height="40" as="geometry" />
        </mxCell>
        <mxCell id="UrWgkj2aCOMLwKdR82E0-19" value="" style="endArrow=none;dashed=1;html=1;dashPattern=1 3;strokeWidth=2;rounded=0;fillColor=#f8cecc;strokeColor=#b85450;" edge="1" parent="1">
          <mxGeometry width="50" height="50" relative="1" as="geometry">
            <mxPoint x="230" y="330" as="sourcePoint" />
            <mxPoint x="780" y="330" as="targetPoint" />
          </mxGeometry>
        </mxCell>
        <mxCell id="UrWgkj2aCOMLwKdR82E0-20" value="" style="endArrow=none;dashed=1;html=1;dashPattern=1 3;strokeWidth=2;rounded=0;fillColor=#f8cecc;strokeColor=#b85450;" edge="1" parent="1">
          <mxGeometry width="50" height="50" relative="1" as="geometry">
            <mxPoint x="220" y="550" as="sourcePoint" />
            <mxPoint x="790" y="550" as="targetPoint" />
          </mxGeometry>
        </mxCell>
        <mxCell id="UrWgkj2aCOMLwKdR82E0-21" value="发送物品核心逻辑" style="text;html=1;align=center;verticalAlign=middle;resizable=0;points=[];autosize=1;strokeColor=none;fillColor=#f8cecc;" vertex="1" parent="1">
          <mxGeometry x="135" y="425" width="120" height="30" as="geometry" />
        </mxCell>
        <mxCell id="UrWgkj2aCOMLwKdR82E0-22" value="发送物品入口逻辑" style="rounded=0;whiteSpace=wrap;html=1;strokeColor=none;" vertex="1" parent="1">
          <mxGeometry x="125" y="205" width="140" height="30" as="geometry" />
        </mxCell>
        <mxCell id="UrWgkj2aCOMLwKdR82E0-23" value="绿色为新增逻辑" style="rounded=0;whiteSpace=wrap;html=1;fontColor=#00CC00;strokeColor=none;" vertex="1" parent="1">
          <mxGeometry x="650" y="260" width="120" height="40" as="geometry" />
        </mxCell>
        <mxCell id="UrWgkj2aCOMLwKdR82E0-24" value="通用物品发放逻辑图" style="text;html=1;align=center;verticalAlign=middle;resizable=0;points=[];autosize=1;strokeColor=none;fillColor=none;" vertex="1" parent="1">
          <mxGeometry x="395" y="580" width="130" height="30" as="geometry" />
        </mxCell>
        <mxCell id="UrWgkj2aCOMLwKdR82E0-25" value="" style="strokeWidth=2;html=1;shape=mxgraph.flowchart.annotation_2;align=left;labelPosition=right;pointerEvents=1;" vertex="1" parent="1">
          <mxGeometry x="280" y="360" width="50" height="160" as="geometry" />
        </mxCell>
        <mxCell id="UrWgkj2aCOMLwKdR82E0-26" value="" style="strokeWidth=2;html=1;shape=mxgraph.flowchart.annotation_2;align=left;labelPosition=right;pointerEvents=1;" vertex="1" parent="1">
          <mxGeometry x="280" y="130" width="50" height="180" as="geometry" />
        </mxCell>
        <mxCell id="UrWgkj2aCOMLwKdR82E0-27" value="核心层不变动" style="text;html=1;align=center;verticalAlign=middle;resizable=0;points=[];autosize=1;strokeColor=none;fillColor=none;fontColor=#EA6B66;" vertex="1" parent="1">
          <mxGeometry x="660" y="510" width="100" height="30" as="geometry" />
        </mxCell>
      </root>
    </mxGraphModel>
  </diagram>
</mxfile>
